HIERARCHY
ROOT Hips
{
  OFFSET -4.35178 90.3298 111.633
  CHANNELS 6 Xposition Yposition Zposition Zrotation Xrotation Yrotation
  JOINT LeftUpLeg
  {
    OFFSET 0.103456 1.85784 10.5485
    CHANNELS 6 Xposition Yposition Zposition Zrotation Xrotation Yrotation
    JOINT LeftLeg
    {
      OFFSET 43.5 -4.2e-05 0
      CHANNELS 6 Xposition Yposition Zposition Zrotation Xrotation Yrotation
      JOINT LeftFoot
      {
        OFFSET 42.3722 1.9e-05 0
        CHANNELS 6 Xposition Yposition Zposition Zrotation Xrotation Yrotation
        JOINT LeftToe
        {
          OFFSET 17.3 0 0
          CHANNELS 6 Xposition Yposition Zposition Zrotation Xrotation Yrotation
          End Site
          {
            OFFSET 0 0 0
          }
        }
      }
    }
  }
  JOINT RightUpLeg
  {
    OFFSET 0.103456 1.85782 -10.5485
    CHANNELS 6 Xposition Yposition Zposition Zrotation Xrotation Yrotation
    JOINT RightLeg
    {
      OFFSET 43.5 -2.7e-05 0
      CHANNELS 6 Xposition Yposition Zposition Zrotation Xrotation Yrotation
      JOINT RightFoot
      {
        OFFSET 42.3723 0 0
        CHANNELS 6 Xposition Yposition Zposition Zrotation Xrotation Yrotation
        JOINT RightToe
        {
          OFFSET 17.3 0 1.7e-05
          CHANNELS 6 Xposition Yposition Zposition Zrotation Xrotation Yrotation
          End Site
          {
            OFFSET 0 0 0
          }
        }
      }
    }
  }
  JOINT Spine
  {
    OFFSET 6.90197 -2.60373 0
    CHANNELS 6 Xposition Yposition Zposition Zrotation Xrotation Yrotation
    JOINT Spine1
    {
      OFFSET 12.5881 0 0
      CHANNELS 6 Xposition Yposition Zposition Zrotation Xrotation Yrotation
      JOINT Spine2
      {
        OFFSET 12.3432 -1.8e-05 0
        CHANNELS 6 Xposition Yposition Zposition Zrotation Xrotation Yrotation
        JOINT Neck
        {
          OFFSET 25.8329 2.3e-05 0
          CHANNELS 6 Xposition Yposition Zposition Zrotation Xrotation Yrotation
          JOINT Head
          {
            OFFSET 11.7666 0 0
            CHANNELS 6 Xposition Yposition Zposition Zrotation Xrotation Yrotation
            End Site
            {
              OFFSET 0 0 0
            }
          }
        }
        JOINT LeftShoulder
        {
          OFFSET 19.7459 -1.48035 6.0001
          CHANNELS 6 Xposition Yposition Zposition Zrotation Xrotation Yrotation
          JOINT LeftArm
          {
            OFFSET 11.2841 1.8e-05 -2e-05
            CHANNELS 6 Xposition Yposition Zposition Zrotation Xrotation Yrotation
            JOINT LeftForeArm
            {
              OFFSET 33 -1.3e-05 1.9e-05
              CHANNELS 6 Xposition Yposition Zposition Zrotation Xrotation Yrotation
              JOINT LeftHand
              {
                OFFSET 25.2 3.2e-05 1.1e-05
                CHANNELS 6 Xposition Yposition Zposition Zrotation Xrotation Yrotation
                End Site
                {
                  OFFSET 0 0 0
                }
              }
            }
          }
        }
        JOINT RightShoulder
        {
          OFFSET 19.7461 -1.48036 -6.00008
          CHANNELS 6 Xposition Yposition Zposition Zrotation Xrotation Yrotation
          JOINT RightArm
          {
            OFFSET 11.2841 0 0
            CHANNELS 6 Xposition Yposition Zposition Zrotation Xrotation Yrotation
            JOINT RightForeArm
            {
              OFFSET 33.0001 1.6e-05 0
              CHANNELS 6 Xposition Yposition Zposition Zrotation Xrotation Yrotation
              JOINT RightHand
              {
                OFFSET 25.1998 0.000123 0.000432
                CHANNELS 6 Xposition Yposition Zposition Zrotation Xrotation Yrotation
                End Site
                {
                  OFFSET 0 0 0
                }
              }
            }
          }
        }
      }
    }
  }
}
MOTION
Frames:	10
Frame Time:	0.0333333
-84.8751 86.6107 -156.586 -84.7838 -34.1521 -170.72 0.103456 1.85784 10.5485 -15.9379 14.5782 178.911 43.5 -4.2e-05 1e-05 -19.4976 -3.25297 -2.24323 42.3722 1.9e-05 0 68.3106 9.67538 -4.79678 17.3 -7.10543e-15 3e-06 21.4546 -1e-06 0.003093 0.103456 1.85782 -10.5485 12.6087 1.42441 173.64 43.5 -2.7e-05 4e-06 -44.0679 8.49427 8.41286 42.3723 -7.10543e-15 1e-05 74.0585 -1.62939 -1.04577 17.3 -6e-06 1.7e-05 21.4546 -1.9e-05 -0.003116 6.90197 -2.60373 -3e-06 8.11913 -0.343942 -0.841872 12.5881 1e-05 8e-06 6.23044 -0.738188 -1.59956 12.3432 -1.8e-05 -5e-06 5.92766 -0.744042 -1.53765 25.8329 2.3e-05 7e-06 0.582215 -3.79498 0.515806 11.7666 -8e-06 -6e-06 -0.383259 -14.2085 19.4502 19.7459 -1.48035 6.0001 -176.029 -8.30201 -78.8236 11.2841 1.8e-05 -2e-05 16.5529 -19.1508 69.15 33 -1.3e-05 1.9e-05 -14.7858 -20.5025 -4.55435 25.2 3.2e-05 1.1e-05 -4.71367 -33.4871 39.3894 19.7461 -1.48036 -6.00008 -170.208 -11.0723 70.7538 11.2841 1.42109e-14 -1e-06 -22.7852 -8.76236 -37.3298 33.0001 1.6e-05 -1e-06 -71.8106 -5.12746 20.4712 25.1998 0.000123 0.000432 2.12544 -25.7897 21.0346 
-81.6415 86.9462 -159.58 -84.0846 -31.4549 -170.699 0.103456 1.85784 10.5485 -15.4288 12.9428 178.859 43.5 -4.2e-05 1e-05 -26.329 -4.26217 -0.923693 42.3722 1.9e-05 2.84217e-14 72.4142 8.47782 -2.49283 17.3 3.55271e-15 3e-06 21.4546 -1e-06 0.003093 0.103456 1.85782 -10.5485 8.33745 1.52736 170.456 43.5 -2.7e-05 4e-06 -54.3318 5.32217 8.91969 42.3723 7.10543e-15 1e-05 65.8862 -9.22571 1.74811 17.3 -6e-06 1.7e-05 21.4546 -1.9e-05 -0.003116 6.90197 -2.60373 -3e-06 8.30223 -0.210623 -0.869928 12.5881 1e-05 8e-06 6.59528 -0.475146 -1.67495 12.3432 -1.8e-05 -5e-06 6.28848 -0.480686 -1.6288 25.8329 2.3e-05 7e-06 0.594594 -3.85674 0.655725 11.7666 -8e-06 -6e-06 -0.217866 -14.3512 19.5647 19.7459 -1.48035 6.0001 -176.124 -8.16882 -78.8094 11.2841 1.8e-05 -2e-05 17.1913 -19.2817 69.6228 33 -1.3e-05 1.9e-05 -14.2243 -19.7252 -5.80687 25.2 3.2e-05 1.1e-05 -9.06676 -32.9127 36.8532 19.7461 -1.48036 -6.00008 -170.089 -11.9254 70.3093 11.2841 0 -1e-06 -22.728 -8.5332 -37.8528 33.0001 1.6e-05 -1e-06 -66.447 -4.14896 19.5499 25.1998 0.000123 0.000432 2.74373 -25.546 20.7924 
-78.3273 87.253 -162.255 -83.5095 -28.1305 -170.947 0.103456 1.85784 10.5485 -13.1302 12.5685 179.225 43.5 -4.2e-05 1e-05 -29.4603 -5.43008 -0.518452 42.3722 1.9e-05 0 75.8138 6.53054 -1.55154 17.3 -3.55271e-15 3e-06 21.4546 -1e-06 0.003093 0.103456 1.85782 -10.5485 3.02987 1.88851 168.977 43.5 -2.7e-05 4e-06 -63.6881 4.67605 6.61295 42.3723 7.10543e-15 1e-05 59.8928 -18.166 4.49576 17.3 -6e-06 1.7e-05 21.4546 -1.9e-05 -0.003116 6.90197 -2.60373 -3e-06 8.5474 -0.00807033 -0.908186 12.5881 1e-05 8e-06 7.08394 -0.0756432 -1.7825 12.3432 -1.8e-05 -5e-06 6.77115 -0.0812328 -1.7604 25.8329 2.3e-05 7e-06 0.593925 -3.82799 0.547644 11.7666 -8e-06 -6e-06 -0.872929 -14.2394 19.4584 19.7459 -1.48035 6.0001 -176.174 -7.62808 -79.36 11.2841 1.8e-05 -2e-05 17.6774 -19.4535 70.2805 33 -1.3e-05 1.9e-05 -13.6804 -19.3341 -6.86098 25.2 3.2e-05 1.1e-05 -11.839 -32.5544 35.1414 19.7461 -1.48036 -6.00008 -169.823 -13.0375 70.3828 11.2841 1.42109e-14 -1e-06 -22.9958 -8.10395 -38.8637 33.0001 1.6e-05 -1e-06 -60.4082 -3.0407 18.4284 25.1998 0.000123 0.000432 3.97762 -25.2541 20.5855 
-75.116 87.6143 -164.573 -83.2416 -24.3683 -171.567 0.103456 1.85784 10.5485 -9.42154 14.2208 -179.779 43.5 -4.2e-05 1e-05 -29.5076 -6.57436 -1.29172 42.3722 1.9e-05 0 78.4848 6.20773 -1.22925 17.3 -1.06581e-14 3e-06 21.4546 -1e-06 0.003093 0.103456 1.85782 -10.5485 -2.82674 1.5054 168.381 43.5 -2.7e-05 4e-06 -71.2903 5.72461 4.00463 42.3723 0 1e-05 57.9134 -21.0652 4.8835 17.3 -6e-06 1.7e-05 21.4546 -1.9e-05 -0.003116 6.90197 -2.60373 -3e-06 8.68989 0.185739 -0.892033 12.5881 1e-05 8e-06 7.36755 0.314328 -1.78187 12.3432 -1.8e-05 -5e-06 7.04888 0.312281 -1.78363 25.8329 2.3e-05 7e-06 0.716536 -3.5143 0.233897 11.7666 -8e-06 -6e-06 -1.7613 -13.6478 19.0964 19.7459 -1.48035 6.0001 -176.094 -7.1987 -79.8641 11.2841 1.8e-05 -2e-05 17.785 -19.2901 70.5825 33 -1.3e-05 1.9e-05 -13.2364 -19.5836 -7.52332 25.2 3.2e-05 1.1e-05 -11.5593 -33.03 35.3334 19.7461 -1.48036 -6.00008 -170.013 -13.7694 70.4152 11.2841 1.42109e-14 -1e-06 -24.0745 -9.18427 -39.4585 33.0001 1.6e-05 -1e-06 -54.5276 -0.967603 16.8334 25.1998 0.000123 0.000432 5.65141 -24.3958 19.8601 
-71.9922 88.055 -166.592 -83.1153 -20.943 -172.302 0.103456 1.85784 10.5485 -5.4467 15.937 -179.146 43.5 -4.2e-05 1e-05 -28.274 -7.45314 -1.95416 42.3722 1.9e-05 2.84217e-14 80.0517 5.75168 -0.951844 17.3 0 3e-06 21.4546 -1e-06 0.003093 0.103456 1.85782 -10.5485 -8.68336 0.456332 168.536 43.5 -2.7e-05 4e-06 -76.1688 5.81329 2.74234 42.3723 1.42109e-14 1e-05 61.3978 -13.051 -0.582821 17.3 -6e-06 1.7e-05 21.4546 -1.9e-05 -0.003116 6.90197 -2.60373 -3e-06 8.77203 0.23239 -0.797016 12.5881 1e-05 8e-06 7.53095 0.42371 -1.60031 12.3432 -1.8e-05 -5e-06 7.2103 0.435195 -1.60904 25.8329 2.3e-05 7e-06 0.871873 -3.42224 0.0139476 11.7666 -8e-06 -6e-06 -2.61138 -13.2312 18.3866 19.7459 -1.48035 6.0001 -176.096 -6.8906 -80.0552 11.2841 1.8e-05 -2e-05 17.7356 -19.0801 70.7344 33 -1.3e-05 1.9e-05 -12.8115 -20.2 -8.21062 25.2 3.2e-05 1.1e-05 -8.27256 -33.8779 37.1056 19.7461 -1.48036 -6.00008 -170.316 -14.1973 70.2743 11.2841 0 -1e-06 -25.3993 -11.2693 -39.578 33.0001 1.6e-05 -1e-06 -49.2613 1.09024 15.1087 25.1998 0.000123 0.000432 6.75169 -23.0643 18.3453 
-68.9297 88.4925 -168.365 -83.0363 -18.3268 -172.928 0.103456 1.85784 10.5485 -1.75869 17.0019 -179.064 43.5 -4.2e-05 1e-05 -26.8934 -8.0742 -2.33775 42.3722 1.9e-05 2.84217e-14 80.7529 5.17929 -0.376384 17.3 1.06581e-14 3e-06 21.4546 -1e-06 0.003093 0.103456 1.85782 -10.5485 -14.0194 -0.979795 169.152 43.5 -2.7e-05 4e-06 -77.5919 5.41978 2.74536 42.3723 -1.42109e-14 1e-05 64.7336 -5.24467 -7.01698 17.3 -6e-06 1.7e-05 21.4546 -1.9e-05 -0.003116 6.90197 -2.60373 -3e-06 8.8883 0.134477 -0.667432 12.5881 1e-05 8e-06 7.7636 0.251559 -1.32572 12.3432 -1.8e-05 -5e-06 7.44487 0.283923 -1.32413 25.8329 2.3e-05 7e-06 0.899374 -3.19491 -0.241495 11.7666 -8e-06 -6e-06 -3.52143 -12.6777 17.8817 19.7459 -1.48035 6.0001 -176.289 -6.40029 -80.1892 11.2841 1.8e-05 -2e-05 17.7429 -19.1994 71.1337 33 -1.3e-05 1.9e-05 -12.4274 -20.7502 -9.31895 25.2 3.2e-05 1.1e-05 -2.9434 -34.4572 39.6047 19.7461 -1.48036 -6.00008 -170.416 -14.2052 69.958 11.2841 0 -1e-06 -26.078 -13.152 -39.4509 33.0001 1.6e-05 -1e-06 -45.224 2.65706 13.7295 25.1998 0.000123 0.000432 7.39764 -21.4617 16.3231 
-65.8757 88.8634 -169.967 -83.0351 -16.2884 -173.443 0.103456 1.85784 10.5485 1.9259 18.1849 -179.202 43.5 -4.2e-05 1e-05 -25.0283 -8.55615 -2.80848 42.3722 1.9e-05 0 80.9027 4.75902 -0.0974735 17.3 3.55271e-15 3e-06 21.4546 -1e-06 0.003093 0.103456 1.85782 -10.5485 -18.4102 -2.5008 170.273 43.5 -2.7e-05 4e-06 -75.7103 5.03529 3.26707 42.3723 0 1e-05 66.6917 1.46503 -12.4651 17.3 -6e-06 1.7e-05 21.4546 -1.9e-05 -0.003116 6.90197 -2.60373 -3e-06 9.01333 -0.0467709 -0.543287 12.5881 1e-05 8e-06 8.01537 -0.0868682 -1.04735 12.3432 -1.8e-05 -5e-06 7.70097 -0.0327761 -1.02513 25.8329 2.3e-05 7e-06 0.801275 -2.91579 -0.414954 11.7666 -8e-06 -6e-06 -3.92788 -12.1113 17.6782 19.7459 -1.48035 6.0001 -176.63 -5.84693 -80.4442 11.2841 1.8e-05 -2e-05 17.9032 -19.5732 71.6558 33 -1.3e-05 1.9e-05 -12.1474 -21.0129 -10.2882 25.2 3.2e-05 1.1e-05 -0.308412 -34.3241 40.2846 19.7461 -1.48036 -6.00008 -170.072 -14.1608 69.4807 11.2841 0 -1e-06 -26.1112 -14.8563 -39.2472 33.0001 1.6e-05 -1e-06 -42.1245 2.62221 13.2781 25.1998 0.000123 0.000432 7.60182 -20.6985 15.0645 
-62.7777 89.0264 -171.481 -83.0969 -14.3306 -173.933 0.103456 1.85784 10.5485 5.46475 19.3123 -179.482 43.5 -4.2e-05 1e-05 -23.3344 -9.07376 -3.23666 42.3722 1.9e-05 0 81.0353 4.37939 0.00553986 17.3 -3.55271e-15 3e-06 21.4546 -1e-06 0.003093 0.103456 1.85782 -10.5485 -21.7859 -3.97329 171.725 43.5 -2.7e-05 4e-06 -70.9225 4.38662 3.62123 42.3723 7.10543e-15 1e-05 69.6237 4.08677 -15.1203 17.3 -6e-06 1.7e-05 21.4546 -1.9e-05 -0.003116 6.90197 -2.60373 -3e-06 9.15697 -0.208698 -0.410379 12.5881 1e-05 8e-06 8.30482 -0.384516 -0.754036 12.3432 -1.8e-05 -5e-06 7.99415 -0.30727 -0.713749 25.8329 2.3e-05 7e-06 0.571335 -2.77699 -0.489532 11.7666 -8e-06 -6e-06 -4.26236 -11.8583 17.561 19.7459 -1.48035 6.0001 -177.064 -5.52109 -80.9714 11.2841 1.8e-05 -2e-05 18.4635 -20.1751 72.6234 33 -1.3e-05 1.9e-05 -12.1684 -21.044 -11.3186 25.2 3.2e-05 1.1e-05 1.24689 -34.0282 40.0345 19.7461 -1.48036 -6.00008 -169.47 -14.0539 68.9755 11.2841 1.42109e-14 -1e-06 -24.9711 -15.9164 -38.5706 33.0001 1.6e-05 -1e-06 -40.3845 3.10121 13.0516 25.1998 0.000123 0.000432 7.90315 -19.5154 13.5315 
-59.6604 89.0006 -172.897 -83.4068 -12.4098 -174.419 0.103456 1.85784 10.5485 8.68909 20.4682 -179.941 43.5 -4.2e-05 1e-05 -21.7967 -9.65028 -3.50278 42.3722 1.9e-05 0 81.3407 3.78689 -0.181885 17.3 -7.10543e-15 3e-06 21.4546 -1e-06 0.003093 0.103456 1.85782 -10.5485 -23.9474 -5.16473 173.371 43.5 -2.7e-05 4e-06 -63.0588 3.70854 4.05552 42.3723 0 1e-05 72.4544 6.56141 -14.4839 17.3 -6e-06 1.7e-05 21.4546 -1.9e-05 -0.003116 6.90197 -2.60373 -3e-06 9.25518 -0.360125 -0.30986 12.5881 1e-05 8e-06 8.50405 -0.666672 -0.526729 12.3432 -1.8e-05 -5e-06 8.19705 -0.571764 -0.469246 25.8329 2.3e-05 7e-06 0.329761 -2.97446 -0.243404 11.7666 -8e-06 -6e-06 -4.64499 -12.133 17.2792 19.7459 -1.48035 6.0001 -177.609 -5.72101 -81.4336 11.2841 1.8e-05 -2e-05 18.9797 -21.0246 73.1831 33 -1.3e-05 1.9e-05 -12.3326 -20.9648 -11.4213 25.2 3.2e-05 1.1e-05 2.50752 -33.4741 40.1209 19.7461 -1.48036 -6.00008 -168.701 -14.2941 68.253 11.2841 0 -1e-06 -23.1392 -16.6749 -37.5295 33.0001 1.6e-05 -1e-06 -39.2369 4.12964 13.0211 25.1998 0.000123 0.000432 8.10151 -18.2911 12.4112 
-56.4686 88.7989 -174.233 -84.0408 -10.588 -174.884 0.103456 1.85784 10.5485 11.7741 21.6458 179.398 43.5 -4.2e-05 1e-05 -20.0765 -10.2131 -3.71565 42.3722 1.9e-05 -2.84217e-14 81.3549 3.04792 -0.648959 17.3 0 3e-06 21.4546 -1e-06 0.003093 0.103456 1.85782 -10.5485 -24.9893 -6.25171 175.072 43.5 -2.7e-05 4e-06 -52.6107 3.73498 4.655 42.3723 -7.10543e-15 1e-05 73.8503 8.85094 -12.5618 17.3 -6e-06 1.7e-05 21.4546 -1.9e-05 -0.003116 6.90197 -2.60373 -3e-06 9.2163 -0.469245 -0.264576 12.5881 1e-05 8e-06 8.4286 -0.877023 -0.417749 12.3432 -1.8e-05 -5e-06 8.12459 -0.776084 -0.347472 25.8329 2.3e-05 7e-06 0.172783 -2.95222 -0.048846 11.7666 -8e-06 -6e-06 -4.83445 -12.1724 17.1538 19.7459 -1.48035 6.0001 -178.159 -6.14263 -81.9056 11.2841 1.8e-05 -2e-05 19.3245 -21.7447 73.122 33 -1.3e-05 1.9e-05 -12.5862 -20.8898 -11.0626 25.2 3.2e-05 1.1e-05 1.82271 -32.7983 39.2027 19.7461 -1.48036 -6.00008 -167.872 -14.4675 67.5512 11.2841 2.13163e-14 -1e-06 -21.6354 -17.7975 -36.6848 33.0001 1.6e-05 -1e-06 -38.1635 4.83326 12.9756 25.1998 0.000123 0.000432 8.04664 -17.2783 11.365 
